<?xml version="1.0" encoding="utf-8"?>
<!-- Generator: Adobe Illustrator 17.0.0, SVG Export Plug-In . SVG Version: 6.00 Build 0)  -->
<!DOCTYPE svg PUBLIC "-//W3C//DTD SVG 1.0//EN" "http://www.w3.org/TR/2001/REC-SVG-20010904/DTD/svg10.dtd">
<svg version="1.0" xmlns="http://www.w3.org/2000/svg" xmlns:xlink="http://www.w3.org/1999/xlink" x="0px" y="0px"
	 width="334.775px" height="287.466px" viewBox="0 0 334.775 287.466" enable-background="new 0 0 334.775 287.466"
	 xml:space="preserve">
<g id="ID" display="none">
	<path display="inline" fill="#C6368B" d="M134.713,176.629c-1.207-7.309-3.16-14.254-12.291-12.174
		c-5.908,1.346-13.166,8.155-15.963,13.347c-5.61,10.413-12.396,26.609-7.949,38.529c5.821,4.066,9.363,8.958,17.446,9.462
		c7.034,0.439,12.888,0.751,19.343,3.368c6.272,2.543,10.244,4.59,17.428,3.525c4.558-0.676,13.905-3.067,17.559-5.664
		c3.624,2.738,6.468,5.829,7.184,10.447c0.611,3.941-3.057,13.995,2.15,15.287c10.173,2.526,3.377-21.235,10.714-23.901
		c14.017-5.093,9.639,22.954,12.242,28.574c1.593,3.438,7.896,7.607,11.78,4.664c2.687-2.037,3.255-12.458,2.326-15.973
		c-1.384-5.235-5.085-8.022-4.71-14.504c0.266-4.607,3.334-10.113,7.886-12.112c10.79-4.738,14.354,11.808,14.355,19.165
		c0.001,5.136-1.624,12.185,4.684,13.473c5.035,1.028,8.024-3.571,8.777-7.618c1.161-6.238-3.678-7.863-4.713-13.303
		c-0.838-4.405-0.387-10.927,1.057-14.936c2.918-8.1,11.502-11.323,14.644-19.772c2.747-7.387,5.429-18.206,4.812-26.336
		c-0.286-3.771-1.95-8.173-2.924-11.722c-1.273-4.637-1.472-6.05-6.568-7.448c-8.148-2.236-16.502,2.851-24.365,5.237
		c-0.681,3.728-4.591,7.509-6.379,11.036c-2.545,5.021-4.244,6.413-9.214,9.189c-8.776,4.902-18.234,5.808-28.551,3.819
		c-9.988-1.925-14.19,8.549-22.069,14.172c-4.423,3.156-10.115,5.297-14.646,8.668c-4.289,3.191-8.025,5.833-12.861,8.147
		c-5.347,2.559-10.328,5.858-15.948,2.242c-2.88-1.853-8.319-9.134-9.086-12.553c-1.323-5.897,4.367-8.019,8.192-11.899
		c4.074-4.133,9.704-9.603,15.658-10.68"/>
</g>
<g id="PS" display="none">
	<g display="inline">
		<path fill="#4B72B8" d="M114.891,70.107c-0.675-1.32-1.498-2.609-2.326-3.904c0.788,1.425,1.574,2.856,2.47,4.214
			C114.987,70.315,114.941,70.205,114.891,70.107z"/>
		<path fill="#4B72B8" d="M162.932,145.105c-2.232-6.326-9.94-12.625-12.147-18.664c-2.191-5.996-4.411-12.355-4.708-18.853
			c-0.165-3.606-0.263-5.846-1.315-8.922c-0.732-2.14-2.328-4.361-2.669-6.596c-1.086-7.117,5.526-8.134,9.911-12.675
			c6.491-6.721,2.733-14.076,4.266-22.343c0.561-3.025,4.644-8.174,4.381-11.983c-0.172,1.13-0.396,2.256-0.729,3.294
			c-0.976,3.048-2.297,4.826-5.407,4.935c-2.695,0.095-5.291-0.255-7.977,0c-3.507,0.333-4.614,0.588-6.442,3.56
			c-2.819,4.583-4.101,9.15-8.591,12.4c-3.132,2.267-4.619,2.006-8.321,2.157c-2.465,0.101-3.996,0.979-4.987,3.094
			c1.883,3.056,1.958,7.444,1.944,11.024c-0.014,3.773-1.672,9.949-5.633,11.185c-1.629,0.509-3.204-0.343-4.859,0.524
			c-1.341,0.703-2.217,2.412-2.98,3.419c-1.371-1.668-3.272-2.591-4.968-4.079c-2.895-2.54-3.232-7.023-5.274-10.352
			c-1.897-3.092-4.115-5.584-5.701-8.847c-0.236-0.485-0.448-0.974-0.657-1.463c-0.248,0.158-0.495,0.323-0.742,0.5
			c-4.263,3.066-6.145,7.116-9.196,11.402c-4.045,5.682-10.556,7.468-14.938,11.832c-3.921,3.904-6.257,9.902-9.764,13.853
			c-2.693,3.034-7.272,8.258-3.391,12.056l-0.878,1.317c5.824-4.294,10.465-3.433,11.219-9.243c1.949-0.302,1.463,0.151,3.233,0.783
			c2.773,0.99,5.365,2.26,7.497,4.058c2.023,1.707,2.404,4.306,4.061,5.961c2.833,2.83,8.044,3.316,11.226,6.879
			c2.615,2.928,4.505,7.811,7.979,10.373c3.471,2.559,8.495,3.827,11.839,6.747c1.714,1.496,3.411,3.096,4.708,5.127
			c1.173,1.837,1.675,5.466,3.766,6.561c2.64,1.382,9.211-0.656,12.168-0.812c5.591-0.295,9.46,0.515,13.512-3.928
			c4.327-4.744,4.199-7.565,10.327-8.704c2.384-0.443,4.526-0.447,6.32-2.196C161.958,145.616,164.101,148.417,162.932,145.105z"/>
	</g>
</g>
<g id="Office_Programs" display="none">
	<g display="inline">
		<path fill="#7452A1" d="M31.849,131.269c0-0.134-0.001-0.254-0.001-0.385c-0.146,0.129-0.297,0.252-0.438,0.385H31.849z"/>
		<path fill="#7452A1" d="M71.237,68.485c-4.68,3.879-6.555,10.246-10.494,14.51c-2.889,3.127-5.98,5.267-8.597,9.187
			c-2.14,3.206-3.432,6.3-4.835,9.795c-2.36,5.876-4.947,9.454-9.872,13.498c-6.043,4.962-5.607,7.628-5.591,15.41
			c4.914-4.337,12.458-6.298,17.418-11.178c4.647-4.572,6.417-11.098,10.688-16.101C67.639,94.6,77.571,90.971,85.261,81.26
			c3.521-4.447,2.702-10.698-1.592-15.078C79.725,62.158,75.014,65.354,71.237,68.485z"/>
		<path fill="#7452A1" d="M147.219,39.992c-6.849-0.674-12.172,2.625-18.546,4.146c-2.85,0.68-5.441,1.101-8.125,2.415
			c-2.024,0.991-3.666,2.184-5.915,2.446c-2.816,0.328-6.629-0.416-9.003,1.451l-0.728,2.428c-0.148,2.623,1.921,5.323,3.099,7.551
			c1.321,2.499,2.769,4.639,4.62,6.79c1.166,1.355,2.57,2.453,3.505,3.855c0.657,0.985,0.834,2.844,2.107,2.891
			c1.273,0.047,3.721-2.638,5.094-3.097c3.667-1.228,6.975-0.834,10.035-3.633c3.46-3.165,3.362-8.333,6.803-10.902
			c6.531-4.876,19.21,3.192,20.307-9.323C160.96,41.447,151.44,40.408,147.219,39.992z"/>
	</g>
</g>
<g id="Clumsyness">
	<path fill="#EAD6AC" d="M117.265,209.965c-1.651-2.44-5.916-9.575-5.702-12.44c0.331-4.413,11.259-9.448,15.029-12.567
		c10.641-8.803,21.672-17.889,33.68-24.997c4.694-2.779,8.651-7.799,13.979-8.969c6.299-1.383,7.887,2.622,10.887,6.235
		c3.455,4.162,6.049,5.814,5.21,12.194c-0.868,6.595-6.747,7.935-11.779,12.038c-5.148,4.197-10.212,7.381-15.722,10.998
		c-6.786,4.454-12.123,10.512-18.629,14.903c-5.419,3.657-22.121,16.912-24.184,2.583"/>
</g>
<g id="creativity" display="none">
	<path display="inline" fill="#0BAC4B" d="M100.823,94.447c-1.502-6.295-5.48-12.544-9.012-17.699
		c-3.102-4.527-5.81-10.079-8.697-14.713c-2.968-4.764-2.36-7.125-2.899-12.693c-0.473-4.876-5.512-11.402-4.67-15.827
		c1.655-0.072,3.377-0.07,5.026,0.01c2.785,6.222,12.962,9.939,18.62,14.198c6.994,5.264,11.741,16.309,16.163,23.636
		c2.785,4.615,4.512,16.868,2.103,22.005c-2.792,5.954-15.069,5.1-18.781,0.654"/>
</g>
<g id="Omni" display="none">
	<path display="inline" fill="#33BFC4" d="M112.155,165.115c3.503-1.838,2.846-3.443-0.183-8.279
		c-3.071-4.904-5.314-6.363-10.767-8.108c-4.918-1.574-9.349-4.602-11.754-9.143c-1.041-1.965-0.876-5.351-2.455-6.912
		c-1.224-1.21-4.461-1.855-5.939-2.491c-2.743-1.179-4.988-2.332-6.959-4.5c-1.569-1.725-2.108-4.557-4.06-5.825
		c-4.76-3.093-8.908-0.285-11.762,3.09c-1.676,1.982-5.191,4.258-7.976,6.731c0.204-2.555-1.831-6.795-4.401-6.824
		c-1.726-0.02-6.532,4.664-8.781,5.342l-4.829,1.317c0.041,5.236-3.395,9.813-4.939,14.517c-1.91,5.821-1.654,9.298,0.109,14.862
		c2.26,7.136,0.739,16.318,4.853,22.525c3.02,4.557,8.046,7.53,11.851,11.415c4.241,4.331,2.741,8.481,9.098,11.218
		c5.648,2.432,12.407,3.338,18.597,2.744c5.399-0.518,9.657-1.968,15.049-0.375c6.121,1.809,8.076,3.887,9.887-3.184
		c2.09-8.16,4.665-20.528,10.117-26.751c1.536-1.753,7.733-5.166,8.255-7.21C115.605,167.546,114.122,166.182,112.155,165.115z"/>
</g>
<g id="Geek" display="none">
	<polyline display="inline" fill="#737374" points="209.126,62.379 235.571,30.6 244.781,30.6 256.589,16.724 264.714,18.141 
		275.482,34.767 264.761,47.661 267.925,53.802 246.67,77.182 239.669,86.156 234.154,72.551 225.273,68.444 212.234,68.732 
		209.126,62.379 	"/>
</g>
<g id="Mac__x26__PC" display="none">
	<path display="inline" fill="#B4B3B4" d="M258.355,198.87c5.865-0.019,4.387-0.232,7.901-3.349
		c1.661-1.473,3.862-2.381,5.902-3.115c5.457-1.963,12.019-2.685,17.825-1.876c4.556,0.635,9.775,3.075,14.296-0.439
		c4.684-3.64,6.865-11.6,8.068-17.231c3.039-14.217-0.143-27.132-4.708-40.362c-0.94-2.723-5.944-30.761-13.76-25.841
		c-0.114,0.033-0.228,0.065-0.341,0.098c-0.258,4.696-0.443,9.852,0.472,14.419c1.05,5.245,3.042,9.764,2.535,15.233
		c-0.869,9.375-3.399,0.194-8.771-1.175c-4.006-1.021-8.974-0.602-13.103-0.384c-1.875,5.172-6.788,9.212-10.953,12.772
		c-5.358,4.579-5.409,6.713-2.621,13.4c5.197,12.462-0.755,27.294-4.06,39.606"/>
</g>
<g id="Flash_1_" display="none">
	<path display="inline" fill="#D61F38" d="M136.469,176.629c-2.237-1.326-3.377-5.22-3.218-7.75c0.227-3.628,0.927-4.983,4.16-6.524
		c6.665-3.178,8.482-10.798,16.581-11.186c1.906-0.091,4.107,0.416,5.903-0.352c1.14-0.488,1.916-2.19,2.918-2.816
		c2.922-1.825,6.67,0.379,9.594-0.984c2.915-1.359,4.39-5.496,7.13-7.253c3.034-1.946,8.722-2.866,11.623-0.83
		c0.529,0.968,1.476,1.551,2.619,1.673c0.331-3.42,4.363-8.569,7.616-9.704c3.638-1.269,7.486-1.327,11.183-2.789
		c2.998-1.185,4.984-3.16,7.807-4.549c2.041-1.004,3.451-1.181,5.046-2.913c1.501-1.629,2.855-3.97,3.813-5.91
		c1.918-3.88,1.946-8.056,6.147-10.12c2.539-1.248,7.513-1.236,9.276-2.679c3.071-2.514,3.667-9.111,5.27-12.414
		c3.44-7.092,6.593-15.723,15.303-16.512c9.53-0.863,14.102,9.216,19.001,15.874c5.524,7.508,9.379,13.757,9.379,23.305
		c0,4.439,0.075,8.544,1.243,12.756c0.935,3.37,2.813,9.095,1.682,12.688c-1.274,4.046-5.488,0.244-8.136-1.47
		c-3.062-1.983-7.779-3.969-11.614-2.641c-3.632,1.257-5.366,6.933-8.181,9.737c-4.196,4.18-6.68,7.483-12.825,7.315
		c-3.342-0.091-6.68-1.073-10.074-0.592c-4.408,0.625-9.953,3.416-13.476,6.167c-4.682,3.656-7.238,10.261-11.202,14.888
		c-2.536,2.96-4.47,6.726-8.489,7.867c-2.876,0.816-6.458,0.932-9.353,1.227c-6.397,0.652-12.802,1.035-18.392-1.813
		c-0.089-2.454,2.677-2.724,3.986-4.392c1.342-1.712,2.909-5.385,2.707-7.556c-0.495-5.313-7.446-12.012-11.657-14.397
		c-7.051-3.994-13.388,4.892-19.006,7.959c-3.831,2.091-7.209,4.599-10.594,7.302c-4.097,3.272-8.173,4.942-11.734,8.734
		c-0.283,0.301-0.555,0.642-0.863,0.944"/>
</g>
<g id="AI" display="none">
	<g display="inline">
		<path fill="#F9A12F" d="M249.429,90.077c-3.835,1.988-8.073-2.782-10.308-5.338c-3.954-4.524-5.672-8.656-6.394-14.594
			c-7.872-0.331-24.089,2.178-23.654-9.344c4.152-2.257,5.656-4.703,4.44-9.568c-0.385-1.54-1.112-2.323-1.25-4.076
			c-0.147-1.879,0-3.843,0-5.729l0.339-0.135c-4.461-1.179-8.926-3.93-13.166-4.742c-5.598-1.072-7.149,4.73-12.204,4.29
			c-3.797-0.33-6.854-3.851-10.944-3.949c-5.479-0.132-11.46,5.737-15.162,9.547c-3.869,3.982-3.733,7.788-3.734,13.279
			c-0.001,8.106-2.261,11.688-7.824,17.141c-3.614,3.542-6.389,7.632-6.662,12.709c-0.29,5.405,2.371,7.217,3.07,11.722
			c0.415,2.675-0.365,5.628,0.336,8.128c0.745,2.658,2.712,5.07,3.53,7.826c2.419,8.15,4.832,15.605,9.657,22.913
			c2.025,3.068,2.521,5.185,6.213,6.574c5.162,1.943,6.398,0.571,9.557-2.39c3.724-3.491,5.917-3.809,11.094-3.853
			c5.383-0.045,6.118-1.1,9.143-5.374c6.913-9.765,20.157-5.228,29.069-12.58c4.267-3.519,4.097-9.961,7.54-13.972
			c3.711-4.324,6.439-6.054,12.126-6.331c0.536-4.02,3.092-8.253,5.192-12.158C249.433,90.075,249.431,90.076,249.429,90.077z"/>
		<path fill="#F9A12F" d="M263.597,70.986c-2.028,0.851-3.148,1.855-4.479,3.482c0.471-0.42,0.953-0.797,1.445-1.119
			c0.945-0.619,3.008-1.236,3.716-2.097c0.195-0.237,0.35-0.436,0.484-0.616C264.333,70.731,263.936,70.843,263.597,70.986z"/>
	</g>
	<path display="inline" fill="#F9A12F" d="M213.267,58.493c2.376-1.505,3.19-4.868,5.227-6.736c2.167-1.986,4.722-3.382,6.022-6.196
		c3.014-6.521-3.64-6.159-8.252-4.883c-5.092,1.409-5.917,3.652-7.139,8.238"/>
	<path display="inline" fill="#F9A12F" d="M239.669,85.153c1.493-6.865,9.115-10.517,13.512-14.943
		c3.122-3.142,8.122-7.845,10.863-1.953c1.616,3.476,0.21,3.861-3.163,5.046c-3.435,1.207-4.23,2.715-5.423,6.149
		c-2.033,5.848-5.085,14.57-12.683,13.983"/>
</g>
<g id="Layer_1">
	<g>
		<path fill="#272727" d="M210.178,145.105c5.084,3.733,2.071,13.761,2.071,13.761s3.88-0.116,4.289-6.137
			C217.046,145.266,210.178,145.105,210.178,145.105z"/>
		<circle fill="#272727" cx="122.248" cy="198.473" r="2.214"/>
		<circle fill="#272727" cx="128.078" cy="206.363" r="2.214"/>
		<circle fill="#272727" cx="138.008" cy="199.08" r="2.214"/>
		<circle fill="#272727" cx="132.376" cy="191.883" r="2.214"/>
		<circle fill="#272727" cx="165.82" cy="167.153" r="2.214"/>
		<circle fill="#272727" cx="171.651" cy="175.043" r="2.214"/>
		<circle fill="#272727" cx="181.581" cy="167.76" r="2.214"/>
		<circle fill="#272727" cx="175.949" cy="160.562" r="2.214"/>
		<path fill="#272727" d="M161.582,170.478c-0.902-1.133-2.251-1.784-3.702-1.784c-1.065,0-2.111,0.366-2.917,1.008l-16.017,12.23
			c-0.988,0.787-1.611,1.912-1.753,3.167c-0.142,1.256,0.213,2.491,1,3.48l5.312,6.67c0.903,1.134,2.252,1.784,3.702,1.784
			c1.065,0,2.111-0.366,2.917-1.008l16.016-12.23c2.04-1.624,2.378-4.606,0.754-6.647L161.582,170.478z M163.981,181.027
			l-16.017,12.231c-0.276,0.219-0.564,0.265-0.757,0.265c-0.374,0-0.722-0.168-0.955-0.46l-5.312-6.67
			c-0.203-0.255-0.294-0.573-0.258-0.896c0.037-0.324,0.197-0.613,0.424-0.794l16.017-12.231c0.276-0.219,0.564-0.265,0.757-0.265
			c0.374,0,0.722,0.168,0.955,0.459l5.312,6.67C164.566,179.862,164.479,180.631,163.981,181.027z"/>
		<path fill="#272727" d="M253.973,28.144c-0.756-1.163-1.338,0-1.338,0l-1.278,1.628c-0.593,0.755,0,1.395,0,1.395
			s0.813,1.279,1.278,1.919c0.465,0.64,0.845,0.465,0.845,0.465s1.016-0.872,1.714-1.512c0.697-0.639,0.291-1.278,0.291-1.278
			S254.729,29.307,253.973,28.144z"/>
		<path fill="#272727" d="M255.867,38.306c0,0,0.814,1.28,1.278,1.918c0.465,0.64,0.845,0.466,0.845,0.466s1.016-0.872,1.714-1.512
			c0.697-0.64,0.291-1.28,0.291-1.28s-0.756-1.453-1.512-2.615c-0.756-1.163-1.338,0-1.338,0l-1.278,1.628
			C255.274,37.666,255.867,38.306,255.867,38.306z"/>
		<path fill="#272727" d="M317.046,157.144c-1.859-17.412-8.091-37.459-8.091-37.459c-4.682-15.071-8.633-14.194-12.438-17.559
			c-3.804-3.365-7.609-12.583-7.609-12.583c-6.878-11.559-18.875-20.047-18.875-20.047c-1.606-2.287-3.666-4.817-6.007-7.218
			l7.352-7.829l-3.658-7.18l10.279-10.873l-12.236-19.863l-10.147-1.414l-11.143,13.385h-9.529l-8.609,10.705
			c-7.758-2.502-14.099-0.733-14.099-0.733c-12.291-10.096-22.674-1.317-22.674-1.317c-14.991-10.456-25.786,2.112-27.023,3.651
			c-10.841-6.29-26.384-2.256-30.634,0.447c-4.865,3.093-12.067,4.713-12.067,4.713c-4.508-0.517-10.148,0.721-15.997,2.829
			c-1-1.66-2.004-3.317-3.003-4.977c-0.41-0.681-1.024-1.463-2.145-1.463c-0.33,0-0.682,0.07-1.077,0.214
			c-1.019,0.373-1.841,0.168-3.017-0.751c-2.546-1.991-5.162-3.974-7.692-5.892c-2.372-1.798-4.826-3.658-7.211-5.516
			c-1.517-1.184-3.086-1.251-4.735-0.18c-2.146,1.394-2.655,2.551-2.098,4.76l1.261,5.002c1.106,4.397,2.212,8.793,3.348,13.181
			c0.247,0.955,0.193,1.401-0.225,1.836c-1.216,1.266-0.694,2.508-0.196,3.333c0.616,1.017,1.229,2.035,1.844,3.052
			c-2.572,1.61-4.738,3.06-6.285,4.16c-5.244,3.729-9.035,10.376-9.035,10.376c-2.923,3.424-9.898,7.18-15.657,15.802
			c-4.331,6.483-7.332,18.329-10.974,20.339c-8.487,4.682-9.365,18.73-9.365,18.73c-8.779,14.047-1.463,30.855-1.463,30.855
			c-0.732,5.395,2.195,8.923,2.195,8.923c1.171,20.903,14.925,24.595,14.925,24.595c0.293,3.796,2.926,6.738,2.926,6.738
			c15.949,13.754,33.361,6.731,33.361,6.731c5.052,5.341,13.799,4.133,14.036,4.099c0.038,0.1,0.07,0.207,0.112,0.304l0.007-0.004
			c5.986,17.823,26.359,16.819,26.359,16.819c5.544,3.951,13.039,3.512,13.039,3.512c14.925,7.756,31.967,0,31.967,0
			c2.71-0.935,5.644-1.23,8.124-1.264c1.275,1.615,4.629,5.38,1.837,13.096c-1.412,3.9-0.756,7.394,1.753,9.346
			c0.729,0.568,1.566,0.959,2.452,1.177c1.923,0.471,4.075,0.116,5.832-1.075c3.296-2.234,4.374-6.646,2.884-11.802
			c-1.536-5.312,0.744-9.207,2.933-11.543c1.052-0.319,2.074-0.682,3.047-1.088c2.062,2.401,7.168,9.821,5.739,23.159
			c-0.677,6.313,1.571,11.267,6.013,13.256c1.291,0.577,2.678,0.856,4.074,0.856c3.032,0,6.101-1.313,8.28-3.724
			c4.087-4.523,4.082-11.475-0.014-18.596c-6.558-11.402,2.035-21.572,3.799-23.461c1.669-0.282,3.189-0.705,4.551-1.22
			c1.921,2.847,5.084,9.506,3.816,21.349c-0.677,6.313,1.571,11.267,6.013,13.255c1.291,0.577,2.678,0.856,4.074,0.856
			c3.032,0,6.101-1.313,8.279-3.723c4.087-4.522,4.082-11.475-0.014-18.596c-6.185-10.754,0.924-19.967,3.206-22.499
			c5.434-3.32,8.07-7.996,8.07-7.996c7.755-1.118,13.461-7.8,13.461-7.8s10.803-6.299,16.327-2.586
			c11.139,7.486,19.668-3.86,19.668-3.86C318.758,174.702,317.046,157.144,317.046,157.144z M291.25,103.883l1.194,1.54
			c-0.306,5.339-0.686,16.873,1.255,22.811c1.733,5.301,1.136,8.212,0.559,9.556c-3.07-2.893-8.596-6.472-16.228-5.011
			c4.93-14.523-2.287-24.835-2.287-24.835c4.82,29.185-14.358,39.218-18.937,41.176c-1.056-0.528-2.248-0.954-3.588-1.248
			c11.38-14.461,4.451-30.044,4.451-30.044c0.714,16.498-8.732,27.926-10.254,29.655c-0.766,0.047-1.554,0.116-2.388,0.236
			c-0.1,0.014-0.192,0.032-0.29,0.047c1.057-3.616,0.84-10.153-10.406-16.323c0,0,8.033,9.932,5.133,17.426
			c-13.707,3.773-15.27,12.256-15.27,12.256c-3.289,15.364-14.856,16.754-14.856,16.754s-6.07,3.127-21.065-0.794
			c6.064-5.521,6.056-10.922,4.837-13.845c-0.456-1.522-2.195-4.453-9.817-11.61c-1.812-1.739-4.113-2.658-6.658-2.658h0
			c-0.241,0-0.479,0.011-0.716,0.027c0.729-0.725,1.584-1.916,2.51-3.893c2.156-4.601,7.805-4.145,10.571-3.178
			c0.798,0.372,10.186,5.047,12.345,20.027c0,0,0.751-9.031-3.572-16.326l0.009,0.006c0,0-6.659-10.7,9.499-14.028
			c19.693-4.056,21.992-7.14,25.999-19.431c2.923-8.967,7.896-8.001,10.373-6.822c-1.515,14.844,4.904,21.286,4.904,21.286
			c-3.516-7.97-1.425-21.031-1.425-21.031s-1.154-2.763,7.637-21.4c3.936-8.343,8.185-9.909,11.68-9.101
			c2.105,1.101,4.211,2.65,6.257,4.481c-12.514,4.685-11.222,23.873-7.168,28.357c4.182,4.625,2.24,17.082,2.24,17.082
			c4.974-7.573,4.035-15.272,1.177-18.774c-2.858-3.502-2.09-10.477-2.09-10.477c0.615-11.242,6.46-12.586,9.588-12.488
			C284.738,92.198,291.25,103.883,291.25,103.883z M182.862,175.758l-6.177,4.572c0,0,0,0,0,0l-42.737,31.633
			c0,0-3.122,2.67-6.762,2.67c-1.92,0-3.985-0.742-5.813-3.012c-1.276-1.585-2.341-2.943-3.229-4.1c0,0,0,0,0,0
			c-0.553-0.721-1.035-1.359-1.454-1.922c-1.699-2.286-2.351-3.321-2.351-3.321s-3.489-4.627,2.72-8.578l19.115-13.587l0,0
			l0.526-0.374l33.637-23.909c0,0,3.101-2.469,6.296-2.469c1.258,0,2.53,0.383,3.633,1.45c0,0,8.458,7.939,8.652,9.839
			c0,0,2.463,4.149-4.274,9.789L182.862,175.758C182.862,175.758,182.862,175.758,182.862,175.758z M136.405,165.316
			c7.685-2.482,9.054-6.717,9.054-6.717s4.161-5.318,9.133-4.717c4.971,0.601,10.27-4.881,10.27-4.881s3.227-2.039,7.982,0.61
			c-2.594,0.844-4.572,2.27-5.124,2.694l-31.292,22.243C135.443,171.509,135.109,168.217,136.405,165.316z M94.471,177.381
			c4.739,0.096,7.835-0.266,9.807-0.68c-0.696,1.343-1.361,2.799-1.975,4.41c0,0-0.868,4.339-2.542,8.875l0.001-0.003
			c0,0-5.037,2.582-15.112,2.511c-10.076-0.07-9.605-6.242-9.605-6.242l-0.004,0.005c2.385-7.016-2.808-18.26-4.809-22.176
			c1.738-1.999,2.798-3.73,3.202-4.439c2.885,0.076,4.704-0.804,4.704-0.804s9.51-1.716,15.403,2.893
			c5.66,4.426,13.967,5.215,18.504,5.286c-1.595,1.233-3.199,2.807-4.727,4.816v-0.001c0,0-13.156,6.631-24.476,0.779
			C82.843,172.611,84.297,177.175,94.471,177.381z M59.158,134.993c-2.788,3.042-2.72,5.231-2.72,5.231l-0.179-0.113
			c-0.776-0.804-2.871-2.704-6.285-3.933c0.767-1.885,2.371-5.222,5.083-8.403c1.331-1.415,2.325-2.424,2.325-2.424
			s0.017-0.031,0.043-0.077c0.573-0.582,0.522-0.556,0.093-0.16c0.885-1.482,6.07-9.201,13.911-1.226
			c8.633,8.779,2.878,21.363,2.878,21.363c2-1.025,5.316-4.682,4.475-9.571c-0.841-4.89,1.573-4.036,1.573-4.036
			c1.774-0.094,3.557,0.954,4.619,1.727c1.111,3.762,4.885,13.902,13.78,16.135c0,0,6.496,1.342,10.864,6.575
			c2.837,3.398,3.946,5.645,4.379,6.809c-5.852-0.53-14.771-1.845-19.527-5.073c-7.467-5.067-17.365-1.785-17.365-1.785
			s-9.079,2.682-14.871-7.086c-5.792-9.768,3.781-18.326,3.781-18.326S61.157,132.812,59.158,134.993z M119.673,163.237
			c-0.002,0-0.094-0.002-0.253-0.007c-0.808-1.845-3.564-7.574-7.925-10.811c0,0-5.523-5.266-11.162-6.629
			c-5.219-1.262-10.521-9.075-10.872-13.247c10.505-6.646,2.919-23.193,2.919-23.193s0,3.708,0,11.918
			c0,8.21-7.105,8.785-7.105,8.785c-4.59-0.563-7.484-3.855-7.484-3.855c-2.009-9.848-10.648-10.002-10.648-10.002
			c-8.916-0.37-9.468,5.055-12.789,7.873c-2.041,1.731-2.363-0.722-2.309-2.872c1.991-2.279,3.886-4.951,5.557-8.102
			c6.581-12.417,15.364-16.718,15.364-16.718s3.161-1.737,6.605-4.487c6.558,3.884,8.918,8.808,6.263,15.998
			c-3.008,8.145-1.535,9.919-1.535,9.919c5.576-21.266,16.179-19.817,16.179-19.817c7.978,1.466,4.313,12.444,4.313,12.444
			s2.709-3.273,3.469-6.851l0.198,0.306c0,0,0.276-8.19,8.959-4.49c8.683,3.7-1.523,20.062-1.523,20.062s-5.997,12.05-1.444,20.763
			c0,0,1.38-13.556,5.682-18.955c2.172-2.726,3.519-5.695,4.181-8.609c1.471,1.008,3.671,4.581,5.045,16.433
			c1.661,14.334,9.352,22.359,13.078,25.465c-0.463,0.467-0.929,0.962-1.4,1.52c-5.809,6.876-15.828,6.599-15.828,6.599
			S122.919,162.397,119.673,163.237z M89.699,79.282c2.299,3.808,4.603,7.614,6.902,11.422l2.562,4.243
			c-5.87-0.087-9.589,4.044-9.589,4.044c-2.067-4.571-4.928-7.557-7.324-9.426c2.164-2.055,4.143-4.443,5.19-6.982
			C87.924,81.408,88.717,80.308,89.699,79.282z M107.3,62.598l8.62,14.283c0.05,0.943,0.215,1.998,0.522,3.182
			c2.284,8.819-0.937,13.278-3.155,15.196c-3.243-0.168-5.439,1.154-6.695,2.272c-0.42-0.384-0.928-0.742-1.525-1.068l-0.439-0.725
			c-4.432-7.312-8.863-14.624-13.291-21.937c-0.199-0.33-0.381-0.678-0.566-1.042C96.945,71.06,102.372,67.725,107.3,62.598z
			 M121.448,81.246c0,0-4.084-8.459,5.248-8.25c11.232,0.252,11.22-13.284,15.967-16.476c4.383-2.947,11.002,0.445,11.002,0.445
			l0.365,1.058c2.462,12.136-4.964,17.561-4.964,17.561c-13.228,8.836-8.132,18.037-8.132,18.037s3.164,3.593,3.232,8.717
			c0.275,20.942,13.104,38.919,16.43,43.521c-0.558,1.08-1.137,1.844-1.564,2.324c-2.06,1.187-4.595,1.963-6.834,1.31
			c0,0-2.17-0.11-5.242,1.574c-3.967-3.865-12.234-13.068-13.195-23.456c-1.335-14.429-6.073-19.104-9.008-20.622
			c-0.35-4.648-2.486-8.536-5.764-10.128c-0.268-0.13-0.53-0.248-0.789-0.361C123.674,90.875,121.448,81.246,121.448,81.246z
			 M263.617,69.599c-4.469,0.77-10.93,4.8-16.132,19.724c-1.571-0.67-3.56-1.792-5.453-3.62l18.574-19.78
			C261.887,67.118,262.874,68.394,263.617,69.599z M238.303,59.361c-0.773-0.685-1.533-1.383-2.274-2.103
			c-0.327-0.317-0.57-0.276-0.879,0.069c-0.673,0.753-1.346,1.512-2.064,2.221c-0.491,0.487-0.606,0.854-0.011,1.258
			c0.25,0.169,0.502,0.348,0.147,0.769c-1.406,1.667-3.598,2.344-5.426,1.377c-0.202,0.219,0.213-0.232,0,0
			c2.205-2.385,8.725-9.184,8.725-9.184s0.352,0.257,0.856,0.936c0.222,0.3,0.427,0.214,0.526-0.185
			c0.439-1.777,0.89-3.553,1.366-5.45c-1.963,0.691-3.806,1.339-5.687,2.001c0.427,0.678,1.358,0.92,1.25,1.522
			c-0.094,0.539-0.82,1.007-1.266,1.507c-0.081,0.091-0.165,0.18-0.249,0.27c-2.973,3.217-5.632,6.094-8.652,9.364
			c-1.276-2.176-1.051-3.348,0.522-5.242c0.42-0.505,0.362-0.159,0.994-0.051c1.064,0.183,2.201-0.558,2.7-1.61
			c0.458-0.963,0.268-2.148-0.454-2.861c-0.784-0.775-2.026-0.924-3.012-0.363c-0.974,0.553-1.69,1.729-1.408,2.724
			c0.237,0.837-0.033,1.33-0.576,1.94c-1.592,1.791-2.154,3.72-0.901,5.797c0.133,0.219,0.183,0.49,0.307,0.716
			c0.237,0.439,0.186,0.79-0.217,1.18c-0.6,0.583-1.168,1.201-1.727,1.825c-0.319,0.059-0.505,0.101-0.505,0.101
			s-7.39,1.969-8.657-3.004l-0.246,0.279c-0.01-0.027-0.02-0.055-0.029-0.083l24.22-30.052l12.615,20.796l-13.436,14.697
			c-2.359-3.035-7.135-3.37-10.557-3.154c0.405-0.59,0.8-1.188,1.346-1.834c0.608-0.719,0.95-1.275,1.734-0.959
			c2.828,1.138,4.853,0.27,6.801-1.691c0.382-0.386,0.597-0.672,0.971-0.181c0.267,0.353,0.523,0.328,0.846-0.041
			c0.749-0.851,1.524-1.68,2.306-2.5C238.598,59.853,238.615,59.637,238.303,59.361z M253.008,50.994l8.91-0.436l2.049-1.943
			l2.106,4.183l-14.861,0.89l-12.598-21.375l5.071-0.129l-1.166,1.42L253.008,50.994z M263.252,19.861l9.049,15.192l-4.396,0.066
			l-9.337-15.898L263.252,19.861z M261.295,47.898l-3.437,0.27l9.495-9.63l3.703-0.03L261.295,47.898z M265.172,36.004
			l-10.936,11.557l-8.438-13.969l10.221-12.884L265.172,36.004z M251.094,58.069l12.009-1.43l-24.092,25.23
			c-1.157-1.948-2.108-4.338-2.666-7.265L251.094,58.069z M223.099,45.159l-7.424,9.402c-0.134-0.651-0.34-1.344-0.639-2.086
			c-1.666-4.137-1.325-6.552-0.691-7.889C217.116,44.065,220.149,44.38,223.099,45.159z M187.099,41.69
			c2.419,1.661,6.774,6.121,7.595,17.002c0,0,3.437-11.191-1.282-17.949c2.422-1.333,5.071-1.533,5.071-1.533
			c4.773-0.09,9.151,2.091,11.818,3.782c-1.291,3.59,0.893,7.853,1.634,9.483c0.48,1.055,1.774,4.962-1.902,7.193
			c-3.333,2.023-2.731,4.769-2.731,4.769s0.515,2.492,2.458,4.704l0.037-0.049c1.482,1.438,4.78,2.941,12.117,2.064
			c10.264-1.226,10.645,3.731,10.645,3.731c0.561,10.987,9.152,16.129,13.74,18.103c-0.436,1.457-0.861,3.002-1.271,4.641
			c-0.355,1.414-0.637,2.765-0.866,4.067c-3.121-1.151-12.778-3.585-15.655,8.994c-3.447,15.075-22.826,16.918-22.826,16.918
			s-13.338,0.581-14.489,11.5c-1.549-0.868-3.336-1.552-5.387-1.997c0.337-2.158,0.614-6.18-0.934-10.248
			c3.071-1.952,10.611-7.862,10.781-18.922c0.012-0.792-0.026-1.535-0.1-2.242c4.792-7.878,13.894-11.197,18.599-11.928
			c7.207-1.12,12.655,3.857,12.655,3.857s-0.889-7.238-10.653-7.598c-1.651-0.061-3.213,0.035-4.696,0.241
			c0.777-11.189-5.559-12.419-5.559-12.419c1.86,5.368,0.548,11.079-0.385,13.979c-5.753,2.268-9.651,6.13-11.628,8.487
			c-3.676-6.377-11.813-6.547-11.813-6.547s5.86,3.116,9.048,10.286c4.748,10.679-6.535,15.658-9.956,16.892
			c-4.973-6.19-10.582-11.994-10.33-24.062c0.271-13.003,0.495-14.795-4.36-19.034c0,0,1.579,3.332-0.312,18.609
			c-1.892,15.277,12.594,30.728,12.594,30.728s3.113,5.364,2.751,9.828c-2.529,0.4-5.008,1.825-6.658,5.264
			c-1.833,3.822-6.821,2.657-6.821,2.657s-1.317-0.344-2.82-0.263c-1.908-2.737-6.824-10.908-10.583-18.379
			c-5.558-11.049-4.058-16.405-5.558-23.962c-1.235-6.225-3.234-9.691-3.234-9.691s-4.609-5.779,6.804-11.933
			c3.207-1.729,5.19-4.364,6.386-7.269l0.001,0.002c0,0,0.005-0.014,0.008-0.023c0.031-0.075,0.061-0.15,0.091-0.225
			c0.762-1.774,6.495-12.51,30.247-2.261c0,0-3.822-7.376-15.443-8.806c-5.854-0.72-10.212,0.001-13.262,1.041
			c-0.041-1.687-0.194-3.186-0.356-4.34c-0.049-7.997,3.872-13.13,5.049-14.487C173.186,36.002,182.363,39.116,187.099,41.69z
			 M124.169,50.223c6.19-2.21,11.687-5.016,11.687-5.016c8.752-3.676,16.66-2.099,21.606-0.239c1.279,6.469-5.256,7.723-5.256,7.723
			c-6.885-2.75-16.002-0.058-16.981,7.273c-1.353,10.136-9.09,9.389-9.09,9.389s-5.683-0.903-8.578,2.178
			c-0.876-1.45-1.749-2.901-2.625-4.351c3.408-2.671,6.505-7.55,6.516-16.502C122.429,50.539,123.31,50.396,124.169,50.223z
			 M112.369,52.897c1.535-0.55,3.089-1.014,4.675-1.396c0.375,2.97,0.312,8.462-4.198,12.223c-1.799-2.978-3.595-5.958-5.393-8.937
			C109.019,53.85,110.732,53.089,112.369,52.897z M99.756,50.131c0.087,0.145,0.174,0.29,0.26,0.434
			c0.734,1.228,1.428,2.389,2.187,3.546c0.39,0.595,0.382,0.877-0.036,1.433c-1.944,2.589-4.529,4.736-8.135,6.757
			c-2.259,1.267-4.729,2.432-7.507,2.259c-0.438-0.027-0.648-0.065-0.749-0.098c-0.816-1.228-1.581-2.507-2.39-3.859
			c-0.073-0.123-0.148-0.246-0.222-0.37C89.717,59.186,95.166,55.868,99.756,50.131z M76.733,34.234
			c0.038-0.065,0.122-0.166,0.31-0.275l15.133,12.218c-2.367,3.285-7.597,5.179-9.584,5.803L76.733,34.234z M75.576,71.859
			c2.027-1.103,4.091-3.474,6.044-4.732c0.174-0.127,0.346-0.245,0.517-0.36c1.644,2.719,3.287,5.439,4.93,8.159
			c-5.938,5.174-8.198,11.328-15.199,14.99c0,0-8.875,1.458-7.478-7.209c0.369-0.309,0.716-0.578,1.004-0.791
			C68.363,78.006,71.219,74.22,75.576,71.859z M40.601,115.603c5.337-3.387,8.065-14.008,11.779-20.281
			c3.337-5.636,7.46-7.757,8.795-9.032c0.178,1.226,0.73,2.706,2.122,4.103l-0.001,0c0,0,0.005,0.004,0.005,0.004
			c0.252,0.252,0.534,0.501,0.844,0.746c0.998,0.95,2.538,2.677,2.77,4.436c-3.447,2.438-9.227,7.175-11.998,13.154
			c-6.39,13.788-16.148,18.072-19.976,19.266C34.999,124.604,35.83,118.63,40.601,115.603z M34.936,133.001l0.013-0.319
			c3.409-1.151,8.185-3.321,12.893-7.326l-0.004,0.007c0,0,6.528,3.085-3.084,10.029c-9.613,6.945-4.667,14.071-4.667,14.071
			s1.639,5.15-2.477,8.357c-1.748,1.361-3.482,1.538-4.903,1.296c-0.857-0.469-2.449-1.917-3.227-6.361
			C27.482,141.337,34.936,133.001,34.936,133.001z M41.04,186.409c-4.749-4.652-6.009-9.791-6.23-13.302
			c-0.018-0.33-0.058-1.319,0.01-2.596c0.079-1.046,0.221-1.661,0.221-1.661c-0.025-0.025-0.043-0.052-0.067-0.077
			c0.358-2.868,1.347-6.247,3.973-7.282c8.529-3.361,5.363-12.731,5.363-12.731c-2.246-3.513-0.081-7.269-0.081-7.269
			c0.39-1.183,1.095-1.965,1.936-2.481c0.638-0.315,3.346-1.043,8.914,5.106c1.271,1.404,2.064,4.73,3.703,6.785
			c3.397,4.262,6.729,6.537,9.645,7.689c-9.778,16.97-27.285,10.261-27.285,10.261s2.158,5.429,12.914,4.194
			c5.871-0.674,10.371-3.435,13.569-6.308c1.324,3.68,4.762,14.426,2.069,20.244c-2.7,5.834-16.568,3.699-21.415,2.756l-0.069-0.422
			c0,0-0.602,0.178-1.602,0.071c-0.002,0-0.012-0.003-0.012-0.003l0,0.002C45.279,189.241,43.278,188.601,41.04,186.409z
			 M66.207,204.428c-10.936-1.446-16.827-7.923-16.827-7.923l-0.415-2.551c4.554,0.873,14.04,2.068,20.48-1.383l-0.007,0.008
			c8.751-0.408,6.802,7.711,5.529,11.285C72.887,204.425,69.838,204.908,66.207,204.428z M82.046,203.93
			c-1.559-2.531-1.456-6.074,1.487-7.231c2.97-1.169,10.046-0.686,13.195-0.396c-0.044,0.067-0.087,0.136-0.131,0.202
			c-1.902,2.817-3.131,6.373-3.55,9.667C87.115,206.195,83.754,204.92,82.046,203.93z M162.952,228.549
			c-14.02,4.829-18.756,2.29-18.756,2.29c-0.672-0.118-1.299-0.279-1.894-0.464c-0.216-7.238,18.375-10.83,18.375-10.83
			c-13.741-1.741-21.758,2.769-25.554,5.932c-6.145,1.608-15.086-2.488-15.086-2.488c-15.219-0.827-19.292-8.885-20.374-13.538l0,0
			c0,0-1.141-7.089,1.47-11.634c2.611-4.546,5.789-15.032,5.789-15.032s5.803-15.232,18.867-15.762
			c1.655-0.067,3.17-0.201,4.564-0.385c-0.092,2.41,0.361,6.114,3.019,10.082l-18.769,13.341c-3.863,2.494-5.113,5.427-5.48,7.456
			c-0.655,3.619,0.993,6.377,1.584,7.225c0.414,0.637,2.41,3.623,7.248,9.632c3.094,3.843,6.728,4.649,9.232,4.649
			c4.756,0,8.596-2.891,9.469-3.603l46.051-34.086c2.514,0.756,3.95,1.652,3.95,1.652s5.198,2.265,17.397-0.145
			c1.587,0.488,3.537,1.824,4.14,5.391c1.07,6.328,4.334,12.483,10.234,11.779c5.9-0.704,20.392-9.109,29.757-5.598
			c0,0-1.464-5.742-14.047-3.749c-12.583,1.993-13.104,3.164-13.104,3.164s-7.087,2.166-8.112-4.097
			c-1.025-6.262-1.995-7.847,1.958-10.035c12.609-5.748,13.695-17.639,13.695-17.639s27.379-22.034,31.633-1.125
			c2.926,14.383-1.035,28.479-3.966,36.217c-0.127-0.035-0.195-0.06-0.195-0.06c-0.074,0.143-0.148,0.285-0.223,0.424
			c-8.468,15.738-23.307,11.282-23.307,11.282c-8.984,10.389-21.786,6.877-21.786,6.877c-2.998-0.052-5.626,0.644-7.788,1.56
			c-1.409-4.097-6.023-11.847-20.894-15.118c-0.451-6.823-7.99-11.45-7.99-11.45c2.617,1.808,3.125,7.849,3.219,10.612
			c-1.1-0.148-2.228-0.283-3.422-0.385c-16.49-1.408-18.189,10.752-18.189,10.752s4.288-8.743,17.308-7.013
			c24.913,3.31,25.65,11.961,24.635,15.822c-0.671,0.554-1.029,0.926-1.029,0.926c-9.365,6.731-16.973,5.853-16.973,5.853
			S176.973,223.721,162.952,228.549z M184.379,243.883c1.04,3.594,0.526,5.529-1.409,6.84c-1.237,0.839-2.896,0.858-3.946,0.04
			c-1.201-0.934-1.401-2.82-0.549-5.176c2.269-6.271,1.726-10.454,0.64-13.077c1.979,0.29,4.18,0.251,6.414-0.04
			C183.899,235.53,183.081,239.395,184.379,243.883z M213.817,259.983c-1.535,1.698-3.993,2.331-5.851,1.498
			c-2.125-0.951-3.111-3.683-2.702-7.495c1.7-15.87-3.685-24.058-6.045-26.817c0.094-0.077,0.198-0.152,0.288-0.229
			c4.39-3.805,12.145-5.413,12.145-5.413c1.01,0.191,1.987,0.329,2.932,0.42c-4.081,6.025-7.364,15.828-1.485,26.049
			C215.953,252.959,216.215,257.328,213.817,259.983z M243.616,236.454c2.856,4.965,3.117,9.334,0.719,11.988
			c-1.535,1.698-3.993,2.331-5.852,1.498c-2.125-0.951-3.111-3.683-2.702-7.495c1.371-12.793-1.864-20.592-4.406-24.583
			c2.863-1.976,4.272-3.901,4.272-3.901c2.653,0.481,5.077,0.518,7.281,0.25C240.108,220.159,238.85,228.168,243.616,236.454z
			 M286.725,187.14l-7.466,0.506c-2.859-1.434-8.747-5.781-7-16.797c0,0-5.498,7.608,0.379,18.973l-1.239,0.477
			c-3.966,4.299-7.542,6.072-10.245,6.739c7.509-19.651,3.966-35.083,3.966-35.083s-0.29-3.951-2.707-7.734
			c1.452-1.261,2.793-2.515,4.026-3.757c2.488-1.219,5.954-1.453,10.706,1.369c11.931,7.084,12.744-7.22,12.744-7.22
			s-2.99,8.479-9.143,3.391c-3.06-2.53-6.18-3.485-9.006-3.624c1.799-2.391,3.226-4.723,4.35-6.978
			c3.331-1.54,10.204-2.799,18.478,6.436c10.966,12.24,1.819,25.92,1.819,25.92s-6.939,8.743-5.88,17.382H286.725z M310.564,168.411
			c-2.974,18.903-9.95,21.376-13.554,21.312c-1.609-3.22-3.209-9.493,2.563-17.212c9.987-13.356,1.162-26.785-1.694-30.496
			c1.057-2.521,1.811-7.32-0.435-13.739c-2.133-6.098-1.862-14.599-1.5-19.206c2.813,1.866,4.963,5.494,4.963,5.494
			S314.661,142.365,310.564,168.411z"/>
	</g>
</g>
</svg>
